<svg xmlns="http://www.w3.org/2000/svg" width="24" height="24" fill="none" viewBox="0 0 24 24"><path stroke="gray" stroke-linecap="round" stroke-linejoin="round" stroke-width="1.5" d="M10.6002 19.8006C10.7018 20.1468 10.9128 20.4507 11.2016 20.6669C11.4904 20.8831 11.8415 21 12.2023 21C12.563 21 12.9141 20.8831 13.2029 20.6669C13.4917 20.4507 13.7027 20.1468 13.8043 19.8006"/><path stroke="gray" stroke-linecap="round" stroke-linejoin="round" stroke-width="1.5" d="M12.2003 4.80007V3"/><path stroke="gray" stroke-linecap="round" stroke-linejoin="round" stroke-width="1.5" d="M12.2003 4.80006C13.7916 4.80006 15.3178 5.43223 16.4431 6.55749C17.5683 7.68275 18.2005 9.20893 18.2005 10.8003C18.2005 16.4373 19.4005 17.4005 19.4005 17.4005H5C5 17.4005 6.20004 15.8677 6.20004 10.8003C6.20004 9.20893 6.83221 7.68275 7.95747 6.55749C9.08273 5.43223 10.6089 4.80006 12.2003 4.80006V4.80006Z"/></svg>